<?xml version="1.0" encoding="UTF-8" standalone="no"?>
<!-- Uploaded to: SVG Repo, www.svgrepo.com, Transformed by: SVG Repo Mixer Tools -->

<svg
   width="800"
   height="215"
   viewBox="0 -189 512 137.6"
   version="1.1"
   preserveAspectRatio="xMidYMid"
   fill="#001f42"
   id="svg3"
   sodipodi:docname="dinersclub-svgrepo-com.svg"
   inkscape:version="1.4 (86a8ad7, 2024-10-11)"
   xmlns:inkscape="http://www.inkscape.org/namespaces/inkscape"
   xmlns:sodipodi="http://sodipodi.sourceforge.net/DTD/sodipodi-0.dtd"
   xmlns="http://www.w3.org/2000/svg"
   xmlns:svg="http://www.w3.org/2000/svg">
  <defs
     id="defs3" />
  <sodipodi:namedview
     id="namedview3"
     pagecolor="#505050"
     bordercolor="#ffffff"
     borderopacity="1"
     inkscape:showpageshadow="0"
     inkscape:pageopacity="0"
     inkscape:pagecheckerboard="1"
     inkscape:deskcolor="#505050"
     inkscape:zoom="1.01875"
     inkscape:cx="400"
     inkscape:cy="120.2454"
     inkscape:window-width="1920"
     inkscape:window-height="1017"
     inkscape:window-x="-8"
     inkscape:window-y="-8"
     inkscape:window-maximized="1"
     inkscape:current-layer="g3" />
  <g
     id="SVGRepo_bgCarrier"
     stroke-width="0" />
  <g
     id="SVGRepo_tracerCarrier"
     stroke-linecap="round"
     stroke-linejoin="round" />
  <g
     id="SVGRepo_iconCarrier"
     transform="translate(0,-186.5816)">
    <g
       id="g3">
      <path
         d="m 99.284607,133.85956 c 36.445943,0.17716 69.714523,-29.65862 69.714523,-65.955357 0,-39.68894 -33.26858,-67.12238713 -69.714523,-67.11100935 H 67.919831 C 31.037433,0.78181587 0.67911688,28.221765 0.67911688,67.904203 c 0,36.304867 30.35831612,66.132517 67.24071412,65.955357 h 31.364776"
         fill="#001f42"
         id="path1"
         sodipodi:nodetypes="csccscc"
         style="fill:#ffffff;fill-opacity:1" />
      <path
         d="M 81.909312,103.24683 V 31.175111 c 14.517142,5.557232 24.822778,19.582781 24.847208,36.033422 -0.0244,16.453892 -10.330066,30.471315 -24.847208,36.038297 M 29.387684,67.208533 C 29.420255,50.767644 39.709609,36.750222 54.218607,31.176736 V 103.2322 C 39.709609,97.663594 29.420255,83.654298 29.387684,67.208533 M 68.066402,6.2935365 C 34.364617,6.3049143 7.0549983,33.56607 7.0468554,67.208533 7.0549983,100.84775 34.364617,128.10402 68.066402,128.11378 101.77959,128.10402 129.09409,100.84775 129.09898,67.208533 129.09409,33.56607 101.77959,6.3049143 68.066402,6.2935365"
         fill="#ffffff"
         id="path2"
         style="fill:#001f42;fill-opacity:1" />
      <path
         d="m 190.37258,29.421308 c 0,-6.293537 -3.29135,-5.880686 -6.44428,-5.947327 v -1.818819 c 2.73275,0.133282 5.53554,0.133282 8.2748,0.133282 2.94284,0 6.941,-0.133282 12.13291,-0.133282 18.15701,0 28.04248,12.102705 28.04248,24.496355 0,6.929067 -4.0633,24.353321 -28.88771,24.353321 -3.5731,0 -6.87423,-0.138159 -10.16721,-0.138159 -3.15293,0 -6.24234,0.06664 -9.39527,0.138159 v -1.820444 c 4.20336,-0.420978 6.24234,-0.560762 6.44428,-5.319924 z m 6.8726,32.824889 c 0,5.38819 3.86136,6.017219 7.2944,6.017219 15.14903,0 20.12433,-11.407035 20.12433,-21.835581 0,-13.082819 -8.41486,-22.529626 -21.94671,-22.529626 -2.87932,0 -4.20336,0.2048 -5.47202,0.279569 z m 37.59246,6.439822 h 1.33055 c 1.9608,0 3.36464,0 3.36464,-2.314565 V 47.409575 c 0,-3.076877 -1.05044,-3.504356 -3.64802,-4.895696 v -1.121523 c 3.29624,-0.984991 7.226,-2.308064 7.50286,-2.51774 0.49346,-0.279568 0.912,-0.354337 1.26378,-0.354337 0.34688,0 0.49183,0.420978 0.49183,0.984991 v 26.866184 c 0,2.314565 1.54226,2.314565 3.50795,2.314565 h 1.18887 v 1.820444 c -2.38587,0 -4.84177,-0.139784 -7.35955,-0.139784 -2.52592,0 -5.05184,0.06827 -7.64291,0.139784 z m 7.50286,-40.940495 c -1.82727,0 -3.4363,-1.679035 -3.4363,-3.49948 0,-1.752177 1.68557,-3.366196 3.4363,-3.366196 1.81749,0 3.43467,1.47586 3.43467,3.366196 0,1.891962 -1.54552,3.49948 -3.43467,3.49948 z m 14.16211,20.081778 c 0,-2.587632 -0.77521,-3.284927 -4.0633,-4.614502 v -1.329575 c 3.01124,-0.978489 5.88405,-1.891961 9.25357,-3.362946 0.20846,0 0.41366,0.143035 0.41366,0.698921 v 4.551111 c 4.00305,-2.865575 7.44097,-5.250032 12.14431,-5.250032 5.9557,0 8.0582,4.33981 8.0582,9.799518 v 18.051657 c 0,2.314565 1.54063,2.314565 3.50633,2.314565 h 1.26214 v 1.820444 c -2.45915,0 -4.91342,-0.139784 -7.4312,-0.139784 -2.52755,0 -5.05347,0.06827 -7.57614,0.139784 v -1.820444 h 1.26052 c 1.96732,0 3.36301,0 3.36301,-2.314565 V 48.25153 c 0,-3.9936 -2.44286,-5.948952 -6.44591,-5.948952 -2.24255,0 -5.81891,1.817193 -8.14126,3.35807 v 20.710806 c 0,2.314565 1.55204,2.314565 3.5161,2.314565 h 1.26052 v 1.820444 c -2.45427,0 -4.91179,-0.139784 -7.43609,-0.139784 -2.52103,0 -5.05021,0.06827 -7.57125,0.139784 v -1.820444 h 1.2654 c 1.96244,0 3.36139,0 3.36139,-2.314565 z m 35.90688,3.364571 c -0.14495,0.630654 -0.14495,1.677409 0,4.058616 0.41203,6.646248 4.7017,12.102705 10.30238,12.102705 3.86299,0 6.88237,-2.100013 9.47018,-4.686019 l 0.9804,0.980114 c -3.22621,4.269917 -7.22437,7.907555 -12.96836,7.907555 -11.15413,0 -13.39505,-10.779631 -13.39505,-15.255974 0,-13.718349 9.25195,-17.778591 14.15722,-17.778591 5.68537,0 11.7909,3.567746 11.85279,10.986058 0,0.425853 0,0.84033 -0.0619,1.264558 l -0.63677,0.420978 z m 12.41302,-2.241422 c 1.75235,0 1.95592,-0.911848 1.95592,-1.750553 0,-3.567746 -2.1709,-6.436571 -6.10065,-6.436571 -4.27502,0 -7.21949,3.141892 -8.05983,8.187124 z m 9.60372,19.735568 h 1.89403 c 1.95593,0 3.35976,0 3.35976,-2.314565 v -19.6608 c 0,-2.168279 -2.59107,-2.590883 -3.64476,-3.150019 v -1.046756 c 5.11862,-2.17153 7.92466,-3.9936 8.56469,-3.9936 0.41203,0 0.62049,0.209677 0.62049,0.913473 v 6.296788 h 0.14983 c 1.74583,-2.729042 4.69682,-7.210261 8.97183,-7.210261 1.75398,0 3.9949,1.188165 3.9949,3.709156 0,1.890336 -1.32891,3.574247 -3.29135,3.574247 -2.18229,0 -2.18229,-1.683911 -4.6333,-1.683911 -1.19375,0 -5.11862,1.610769 -5.11862,5.812419 v 16.439264 c 0,2.314565 1.39894,2.314565 3.36464,2.314565 h 3.92487 v 1.820444 c -3.8581,-0.07152 -6.7928,-0.139784 -9.81218,-0.139784 -2.87444,0 -5.82054,0.06827 -8.34483,0.139784 z m 26.9953,-7.910806 c 0.91363,4.617752 3.71641,8.539835 8.83829,8.539835 4.13008,0 5.67234,-2.519366 5.67234,-4.967213 0,-8.260267 -15.28095,-5.602743 -15.28095,-16.866743 0,-3.922082 3.15944,-8.960813 10.86913,-8.960813 2.24092,0 5.25542,0.63228 7.98817,2.033372 l 0.49509,7.132241 h -1.61392 c -0.70029,-4.404825 -3.15292,-6.92419 -7.64291,-6.92419 -2.80767,0 -5.46877,1.609142 -5.46877,4.617752 0,8.193625 16.26786,5.669384 16.26786,16.655441 0,4.617753 -3.71641,9.521575 -12.06287,9.521575 -2.80441,0 -6.10065,-0.98174 -8.55166,-2.379581 l -0.77358,-8.048965 z m 83.4418,-26.454959 h -1.74909 c -1.33543,-8.182248 -7.15597,-11.475302 -15.00571,-11.475302 -8.06798,0 -19.78071,5.386565 -19.78071,22.181791 0,14.144203 10.10533,24.288305 20.89954,24.288305 6.93937,0 12.69476,-4.757537 14.0986,-12.109207 l 1.60903,0.419353 -1.60903,10.217244 c -2.9461,1.825321 -10.87076,3.712406 -15.50243,3.712406 -16.40304,0 -26.77871,-10.56833 -26.77871,-26.315174 0,-14.347378 12.82831,-24.637765 26.57188,-24.637765 5.67722,0 11.14924,1.82532 16.54635,3.715657 z m 2.52919,34.365765 h 1.32566 c 1.96895,0 3.37278,0 3.37278,-2.314565 V 27.397689 c 0,-4.552737 -1.05206,-4.692521 -3.71641,-5.461333 v -1.119899 c 2.80278,-0.908597 5.74888,-2.168279 7.22111,-3.01186 0.76543,-0.416102 1.33055,-0.772064 1.53738,-0.772064 0.42669,0 0.56837,0.424229 0.56837,0.984991 v 48.35393 c 0,2.314565 1.54064,2.314565 3.50633,2.314565 h 1.18398 v 1.820444 c -2.3761,0 -4.83199,-0.139784 -7.35629,-0.139784 -2.52267,0 -5.04696,0.06827 -7.64291,0.139784 z m 45.02202,-2.033371 c 0,1.264558 0.76869,1.3312 1.95918,1.3312 0.84361,0 1.89078,-0.06664 2.80604,-0.06664 v 1.47261 c -3.01938,0.277943 -8.76663,1.747302 -10.10044,2.166654 l -0.3534,-0.211302 v -5.666133 c -4.2001,3.427962 -7.4312,5.877435 -12.41464,5.877435 -3.78319,0 -7.70969,-2.449473 -7.70969,-8.325283 v -17.92 c 0,-1.820444 -0.27849,-3.570997 -4.20173,-3.918831 v -1.3312 c 2.52755,-0.06827 8.12823,-0.487619 9.04349,-0.487619 0.77683,0 0.77683,0.487619 0.77683,2.028495 v 18.051657 c 0,2.103263 0,8.120482 6.09577,8.120482 2.38424,0 5.53879,-1.818819 8.48,-4.263415 V 44.677282 c 0,-1.396215 -3.36301,-2.163403 -5.88242,-2.863949 v -1.259682 c 6.30422,-0.422603 10.23724,-0.980114 10.93427,-0.980114 0.56674,0 0.56674,0.487619 0.56674,1.261307 z m 13.95203,-23.092013 c 2.80115,-2.379581 6.58923,-5.040356 10.44895,-5.040356 8.13475,0 13.03677,7.073727 13.03677,14.698464 0,9.167238 -6.72766,18.337727 -16.76132,18.337727 -5.18377,0 -7.91815,-1.682286 -9.74378,-2.449473 l -2.10087,1.605892 -1.46735,-0.767187 c 0.62049,-4.128508 0.97878,-8.18875 0.97878,-12.457042 V 27.397689 c 0,-4.552737 -1.05695,-4.692521 -3.71967,-5.461333 v -1.119899 c 2.81092,-0.908597 5.74888,-2.168279 7.22437,-3.01186 0.77031,-0.416102 1.32729,-0.772064 1.54552,-0.772064 0.42017,0 0.5586,0.424229 0.5586,0.984991 z m 0,19.033397 c 0,2.659149 2.52267,7.143619 7.22111,7.143619 7.50449,0 10.65741,-7.35167 10.65741,-13.583442 0,-7.556469 -5.74399,-13.851631 -11.21601,-13.851631 -2.60084,0 -4.7701,1.68066 -6.66251,3.291428 z M 183.8485,111.19502 h 0.53743 c 1.37126,0 2.8207,-0.18529 2.8207,-2.16828 V 89.078248 c 0,-1.986235 -1.44944,-2.174781 -2.8207,-2.174781 h -0.53743 v -1.142654 c 1.48852,0 3.7783,0.149536 5.65279,0.149536 1.90544,0 4.19196,-0.149536 5.98503,-0.149536 v 1.142654 h -0.53581 c -1.368,0 -2.82069,0.188546 -2.82069,2.174781 v 19.948492 c 0,1.98299 1.45269,2.16828 2.82069,2.16828 h 0.53581 v 1.14753 c -1.83052,0 -4.12519,-0.14953 -6.02574,-0.14953 -1.87124,0 -4.12356,0.14953 -5.61208,0.14953 z m 37.8514,-6.35855 0.0765,-0.0748 V 90.484216 c 0,-3.124013 -2.17741,-3.580749 -3.32067,-3.580749 h -0.84035 v -1.142654 c 1.79469,0 3.5503,0.151162 5.34173,0.151162 1.56344,0 3.13339,-0.151162 4.69357,-0.151162 v 1.142654 h -0.56838 c -1.6074,0 -3.40047,0.305574 -3.40047,4.835555 V 109.069 c 0,1.3312 0.0391,2.6624 0.22637,3.84244 h -1.44943 L 202.81166,91.051479 v 15.691581 c 0,3.31256 0.64329,4.45196 3.5845,4.45196 h 0.64654 v 1.14753 c -1.63835,0 -3.27669,-0.14953 -4.91993,-0.14953 -1.71163,0 -3.46887,0.14953 -5.18702,0.14953 v -1.14753 h 0.53417 c 2.63179,0 3.43142,-1.78631 3.43142,-4.82905 V 90.326552 c 0,-2.12927 -1.75887,-3.423085 -3.46887,-3.423085 h -0.49672 v -1.142654 c 1.44781,0 2.93633,0.151162 4.3825,0.151162 1.14652,0 2.25558,-0.151162 3.39884,-0.151162 z m 11.6655,-17.172318 c -2.86629,0 -2.97378,0.685918 -3.54704,3.462096 h -1.14326 c 0.1482,-1.064635 0.342,-2.12927 0.45763,-3.236165 0.15472,-1.067886 0.228,-2.12927 0.228,-3.232915 h 0.91526 c 0.3078,1.14428 1.26052,1.103645 2.2963,1.103645 h 19.68136 c 1.03252,0 1.98361,-0.03738 2.06341,-1.181664 l 0.91037,0.152788 c -0.1482,1.028876 -0.30291,2.054501 -0.41854,3.085003 -0.07,1.028876 -0.07,2.057752 -0.07,3.083377 l -1.14652,0.422604 c -0.0782,-1.407594 -0.27035,-3.658769 -2.82396,-3.658769 h -6.25699 V 107.9231 c 0,2.93709 1.33706,3.27192 3.16433,3.27192 h 0.72471 v 1.14753 c -1.48689,0 -4.15938,-0.14953 -6.21628,-0.14953 -2.28978,0 -4.96227,0.14953 -6.45242,0.14953 v -1.14753 h 0.72471 c 2.10576,0 3.16759,-0.18692 3.16759,-3.19228 V 87.664152 Z m 23.08183,23.530868 h 0.53581 c 1.37289,0 2.82395,-0.18529 2.82395,-2.16828 V 89.078248 c 0,-1.986235 -1.45106,-2.174781 -2.82395,-2.174781 h -0.53581 v -1.142654 c 2.32236,0 6.29934,0.149536 9.49787,0.149536 3.20993,0 7.17226,-0.149536 9.76495,-0.149536 -0.0651,1.635149 -0.0277,4.152889 0.0831,5.827047 l -1.14978,0.305575 c -0.18403,-2.473854 -0.64003,-4.453587 -4.64959,-4.453587 h -5.29776 v 9.973434 h 4.53396 c 2.28815,0 2.78813,-1.290565 3.0145,-3.351568 h 1.14163 c -0.0749,1.488864 -0.114,2.972851 -0.114,4.455213 0,1.451479 0.0391,2.896453 0.114,4.343063 l -1.14163,0.22593 c -0.22637,-2.28206 -0.342,-3.767672 -2.97867,-3.767672 h -4.56979 v 8.871412 c 0,2.47548 2.20347,2.47548 4.64633,2.47548 4.58119,0 6.60063,-0.3072 7.74715,-4.64213 l 1.06672,0.26169 c -0.49835,2.02362 -0.95435,4.03586 -1.2931,6.05785 -2.44612,0 -6.83351,-0.14953 -10.26329,-0.14953 -3.43793,0 -7.9784,0.14953 -10.15256,0.14953 z m 26.85851,-21.399972 c 0,-2.777804 -1.52598,-2.891581 -2.71158,-2.891581 h -0.68726 v -1.14428 c 1.22143,0 3.58612,0.152788 5.91499,0.152788 2.28652,0 4.1203,-0.152788 6.14137,-0.152788 4.8043,0 9.08257,1.293816 9.08257,6.706388 0,3.42146 -2.28815,5.516596 -5.30265,6.703136 l 6.52246,9.740999 c 1.06997,1.61077 1.82889,2.06263 3.70176,2.28369 v 1.14915 c -1.26052,0 -2.48196,-0.14953 -3.73922,-0.14953 -1.18235,0 -2.40704,0.14953 -3.5845,0.14953 -2.93795,-3.84569 -5.46225,-7.95794 -7.93931,-12.343261 h -2.5129 v 8.152991 c 0,2.93547 1.36963,3.04112 3.12198,3.04112 h 0.68889 v 1.14915 c -2.17903,0 -4.38413,-0.14953 -6.56154,-0.14953 -1.83377,0 -3.62684,0.14953 -5.5339,0.14953 v -1.14915 h 0.68726 c 1.41686,0 2.71158,-0.63878 2.71158,-2.04963 z m 4.88573,8.832406 h 1.86309 c 3.81902,0 5.87428,-1.443352 5.87428,-5.9392 0,-3.384076 -2.17252,-5.555606 -5.57136,-5.555606 -1.14652,0 -1.63509,0.117028 -2.16601,0.151162 z m 43.68008,6.209016 0.0684,-0.0748 V 90.484216 c 0,-3.124013 -2.17089,-3.580749 -3.31415,-3.580749 h -0.83709 v -1.142654 c 1.79306,0 3.54215,0.151162 5.3401,0.151162 1.5667,0 3.12362,-0.151162 4.70008,-0.151162 v 1.142654 h -0.57652 c -1.60089,0 -3.39558,0.305574 -3.39558,4.835555 V 109.069 c 0,1.3312 0.0358,2.6624 0.22474,3.84244 h -1.44618 L 312.98656,91.051479 v 15.691581 c 0,3.31256 0.64655,4.45196 3.5845,4.45196 h 0.64818 v 1.14753 c -1.63835,0 -3.27996,-0.14953 -4.91831,-0.14953 -1.72303,0 -3.47701,0.14953 -5.1919,0.14953 v -1.14753 h 0.52929 c 2.63666,0 3.43792,-1.78631 3.43792,-4.82905 V 90.326552 c 0,-2.12927 -1.7556,-3.423085 -3.47049,-3.423085 h -0.49672 v -1.142654 c 1.44455,0 2.93958,0.151162 4.38901,0.151162 1.13512,0 2.24581,-0.151162 3.39396,-0.151162 z m 12.09219,2.061 c -0.3876,1.29219 -0.84686,2.28856 -0.84686,2.96798 0,1.14428 1.60415,1.32957 2.85978,1.32957 h 0.42669 v 1.14753 c -1.52923,-0.0829 -3.08778,-0.14791 -4.62516,-0.14791 -1.37126,0 -2.73601,0.065 -4.11542,0.14791 v -1.14753 h 0.23126 c 1.48689,0 2.74904,-0.87446 3.31253,-2.4771 l 6.11205,-17.471393 c 0.4902,-1.409219 1.18398,-3.314184 1.41361,-4.728279 1.21491,-0.412851 2.74415,-1.173537 3.46887,-1.631899 0.11725,-0.04063 0.18403,-0.07964 0.30454,-0.07964 0.114,0 0.18403,0 0.27034,0.117028 0.114,0.303949 0.22149,0.646908 0.34526,0.950857 l 7.01917,19.917606 c 0.456,1.3312 0.91038,2.7388 1.40384,3.88633 0.46251,1.06626 1.26377,1.51649 2.52429,1.51649 h 0.228 v 1.14753 c -1.71652,-0.0829 -3.4363,-0.14791 -5.26356,-0.14791 -1.86798,0 -3.78156,0.065 -5.72771,0.14791 v -1.14753 h 0.42343 c 0.87292,0 2.36633,-0.14791 2.36633,-1.10202 0,-0.49249 -0.34363,-1.51974 -0.77032,-2.74204 l -1.48364,-4.4162 h -8.66077 z m 5.56811,-16.871616 h -0.0782 l -3.54867,10.778006 h 7.12991 z m 16.44375,-2.361702 c -2.86304,0 -2.97704,0.685918 -3.5503,3.462096 h -1.14652 c 0.14983,-1.064635 0.34363,-2.12927 0.46251,-3.236165 0.15146,-1.067886 0.22312,-2.12927 0.22312,-3.232915 h 0.92015 c 0.30291,1.14428 1.26052,1.103645 2.28652,1.103645 h 19.69113 c 1.026,0 1.97872,-0.03738 2.05689,-1.181664 l 0.91364,0.152788 c -0.14657,1.028876 -0.29966,2.054501 -0.41366,3.085003 -0.0847,1.028876 -0.0847,2.057752 -0.0847,3.083377 l -1.14163,0.422604 c -0.07,-1.407594 -0.2622,-3.658769 -2.81907,-3.658769 h -6.25862 V 107.9231 c 0,2.93709 1.33869,3.27192 3.16595,3.27192 h 0.72635 v 1.14753 c -1.48852,0 -4.15776,-0.14953 -6.21954,-0.14953 -2.2849,0 -4.96228,0.14953 -6.44917,0.14953 v -1.14753 h 0.72472 c 2.10249,0 3.16921,-0.18692 3.16921,-3.19228 V 87.664152 Z m 23.26423,23.530868 h 0.53417 c 1.37778,0 2.8207,-0.18529 2.8207,-2.16828 V 89.078248 c 0,-1.986235 -1.44292,-2.174781 -2.8207,-2.174781 h -0.53417 v -1.142654 c 1.49177,0 3.77667,0.149536 5.64302,0.149536 1.91358,0 4.20173,-0.149536 5.99805,-0.149536 v 1.142654 h -0.53417 c -1.37615,0 -2.82884,0.188546 -2.82884,2.174781 v 19.948492 c 0,1.98299 1.45269,2.16828 2.82884,2.16828 h 0.53417 v 1.14753 c -1.83378,0 -4.12356,-0.14953 -6.02899,-0.14953 -1.87287,0 -4.12031,0.14953 -5.61208,0.14953 z M 416.0967,85.191924 c 8.13475,0 14.61649,5.028978 14.61649,13.139708 0,8.759268 -6.29609,14.581438 -14.41943,14.581438 -8.09566,0 -14.27285,-5.48247 -14.27285,-13.669591 0,-7.918933 6.14136,-14.051555 14.07579,-14.051555 z m 0.57652,26.045356 c 7.40351,0 8.69172,-6.51621 8.69172,-12.066943 0,-5.56861 -3.00473,-12.30588 -9.34152,-12.30588 -6.6788,0 -8.66078,5.942451 -8.66078,11.039695 0,6.816918 3.1285,13.333128 9.31058,13.333128 z m 39.75032,-6.40081 0.0782,-0.0748 V 90.484216 c 0,-3.124013 -2.18066,-3.580749 -3.32555,-3.580749 h -0.82732 v -1.142654 c 1.78655,0 3.54378,0.151162 5.33033,0.151162 1.57158,0 3.13502,-0.151162 4.70171,-0.151162 v 1.142654 h -0.57652 c -1.59926,0 -3.39558,0.305574 -3.39558,4.835555 V 109.069 c 0,1.3312 0.0358,2.6624 0.22963,3.84244 H 457.1906 L 437.53693,91.051479 v 15.691581 c 0,3.31256 0.6498,4.45196 3.5845,4.45196 h 0.65143 v 1.14753 c -1.64161,0 -3.27833,-0.14953 -4.91994,-0.14953 -1.71652,0 -3.47701,0.14953 -5.19516,0.14953 v -1.14753 h 0.53906 c 2.63667,0 3.42978,-1.78631 3.42978,-4.82905 V 90.326552 c 0,-2.12927 -1.74583,-3.423085 -3.47049,-3.423085 h -0.49835 v -1.142654 c 1.45269,0 2.94121,0.151162 4.38902,0.151162 1.14326,0 2.24743,-0.151162 3.39558,-0.151162 z m 12.0873,2.061 c -0.37457,1.29219 -0.83708,2.28856 -0.83708,2.96798 0,1.14428 1.6074,1.32957 2.85815,1.32957 h 0.42669 v 1.14753 c -1.52761,-0.0829 -3.0943,-0.14791 -4.62028,-0.14791 -1.37777,0 -2.74578,0.065 -4.11379,0.14791 v -1.14753 h 0.21661 c 1.4934,0 2.75718,-0.87446 3.32066,-2.4771 l 6.11369,-17.471393 c 0.49345,-1.409219 1.18397,-3.314184 1.40546,-4.728279 1.22306,-0.412851 2.74741,-1.173537 3.47864,-1.631899 0.10911,-0.04063 0.18566,-0.07964 0.30129,-0.07964 0.114,0 0.18728,0 0.26383,0.117028 0.11563,0.303949 0.23288,0.646908 0.34851,0.950857 l 7.01592,19.917606 c 0.45763,1.3312 0.91363,2.7388 1.41523,3.88633 0.45763,1.06626 1.26215,1.51649 2.51778,1.51649 h 0.23289 v 1.14753 c -1.71978,-0.0829 -3.43793,-0.14791 -5.27171,-0.14791 -1.86472,0 -3.77667,0.065 -5.72282,0.14791 v -1.14753 h 0.4218 c 0.87129,0 2.36958,-0.14791 2.36958,-1.10202 0,-0.49249 -0.34689,-1.51974 -0.77194,-2.74204 l -1.48201,-4.4162 h -8.6624 z m 5.57625,-16.871616 h -0.0765 l -3.55356,10.778006 h 7.14132 z m 24.38144,18.583166 c 0,1.52624 1.0602,1.97973 2.28164,2.13577 1.56506,0.1154 3.28158,0.1154 5.04207,-0.078 1.59927,-0.1918 2.97216,-1.10365 3.65779,-2.05775 0.60909,-0.83871 0.95109,-1.90334 1.18397,-2.74205 h 1.10581 c -0.41855,2.16991 -0.95435,4.3073 -1.41524,6.47558 -3.34835,0 -6.71788,-0.14791 -10.06623,-0.14791 -3.36302,0 -6.71626,0.14791 -10.07438,0.14791 v -1.14753 h 0.52603 c 1.3794,0 2.87118,-0.18529 2.87118,-2.54862 V 89.076622 c 0,-1.984609 -1.49178,-2.173155 -2.87118,-2.173155 h -0.52603 v -1.142654 c 2.0178,0 4.00467,0.151162 6.0241,0.151162 1.95267,0 3.85648,-0.151162 5.80425,-0.151162 v 1.142654 h -0.95923 c -1.44617,0 -2.58455,0.04226 -2.58455,2.056127 z"
         fill="#001f42"
         id="path3"
         style="fill:#ffffff;fill-opacity:1"
         sodipodi:nodetypes="sccssssscccssssscscssscccssssccsccsssssscccscssssccsccsssscssccsccsssccsccsssccccssscscsssccssccsssssssccscccsssscccsssscccccssscccssscccssscccssssccsccsscccccsssccsssscsccssscssscccsscccsscsssscscssssccsccssssccsccccssccsccssscccssccsccssssccsccscccccsscccccscssccsccsscscssssccscccsccsccsccscsscccsccssccsssccccscccssccsccssscsssccccssccsccssscccssccsccssssccscccssccsccsccccsccccsccsccsscccccccccscccccsscccccscssccsccsscscssssccsccssssccsccssssssssssccssccsccssscccssccsccssssccscccssccsccsccccsccccsccsccsscccccccccsccccccsccssssccsccsss" />
    </g>
  </g>
</svg>
